HIERARCHY
ROOT Bip001_Pelvis
{
  OFFSET 34.4345 95.6767 -26.8758
  CHANNELS 6 Xposition Yposition Zposition Zrotation Xrotation Yrotation
  JOINT Bip001_Spine
  {
    OFFSET 1.4188e-005 10.2191 -0.0116013
    CHANNELS 3 Zrotation Xrotation Yrotation
    JOINT Bip001_L_Thigh
    {
      OFFSET 11.0458 -10.2192 0.0116197
      CHANNELS 3 Zrotation Xrotation Yrotation
      JOINT Bip001_L_Calf
      {
        OFFSET -0.707118 -44.0221 0.360014
        CHANNELS 3 Zrotation Xrotation Yrotation
        JOINT Bip001_L_Foot
        {
          OFFSET -0.651902 -40.5938 -3.56146
          CHANNELS 3 Zrotation Xrotation Yrotation
          JOINT Bip001_L_Toe0
          {
            OFFSET 0.0530839 -10.2181 13.1504
            CHANNELS 3 Zrotation Xrotation Yrotation
            End Site
            {
              OFFSET -1.02532e-005 0 7.55606
            }
          }
        }
      }
    }
    JOINT Bip001_R_Thigh
    {
      OFFSET -11.0458 -10.2191 0.0115893
      CHANNELS 3 Zrotation Xrotation Yrotation
      JOINT Bip001_R_Calf
      {
        OFFSET 0.706994 -44.0221 0.35984
        CHANNELS 3 Zrotation Xrotation Yrotation
        JOINT Bip001_R_Foot
        {
          OFFSET 0.651786 -40.5938 -3.5613
          CHANNELS 3 Zrotation Xrotation Yrotation
          JOINT Bip001_R_Toe0
          {
            OFFSET -0.0531479 -10.2181 13.1504
            CHANNELS 3 Zrotation Xrotation Yrotation
            End Site
            {
              OFFSET -1.02894e-005 0 7.55606
            }
          }
        }
      }
    }
    JOINT Bip001_Spine1
    {
      OFFSET 1.87041e-005 14.5736 1.08638
      CHANNELS 3 Zrotation Xrotation Yrotation
      JOINT Bip001_Spine2
      {
        OFFSET 2.24614e-005 14.5058 -1.69078
        CHANNELS 3 Zrotation Xrotation Yrotation
        JOINT Bip001_Neck
        {
          OFFSET 2.20278e-005 15.3945 -0.489414
          CHANNELS 3 Zrotation Xrotation Yrotation
          JOINT Bip001_L_Clavicle
          {
            OFFSET 6.06036 -0.000579998 0.00836775
            CHANNELS 3 Zrotation Xrotation Yrotation
            JOINT Bip001_L_UpperArm
            {
              OFFSET 11.5509 -0.0600302 0.00193952
              CHANNELS 3 Zrotation Xrotation Yrotation
              JOINT Bip001_L_Forearm
              {
                OFFSET 25.9523 0.0806089 -2.15551
                CHANNELS 3 Zrotation Xrotation Yrotation
                JOINT Bip001_L_Hand
                {
                  OFFSET 32.2475 0.153767 1.63968
                  CHANNELS 3 Zrotation Xrotation Yrotation
                  JOINT Bip001_L_Finger0
                  {
                    OFFSET 6.04639 -2.20976 5.90322
                    CHANNELS 3 Zrotation Xrotation Yrotation
                    End Site
                    {
                      OFFSET 4.22375 -1.43895 0.606485
                    }
                  }
                  JOINT Bip001_L_Finger1
                  {
                    OFFSET 11.0826 -0.704819 -0.198153
                    CHANNELS 3 Zrotation Xrotation Yrotation
                    End Site
                    {
                      OFFSET 6.20027 -0.397518 -0.0787166
                    }
                  }
                }
              }
            }
          }
          JOINT Bip001_R_Clavicle
          {
            OFFSET -6.06037 -0.000563197 0.00835105
            CHANNELS 3 Zrotation Xrotation Yrotation
            JOINT Bip001_R_UpperArm
            {
              OFFSET -11.5509 -0.0599978 0.00190698
              CHANNELS 3 Zrotation Xrotation Yrotation
              JOINT Bip001_R_Forearm
              {
                OFFSET -25.9523 0.0806822 -2.15589
                CHANNELS 3 Zrotation Xrotation Yrotation
                JOINT Bip001_R_Hand
                {
                  OFFSET -32.2475 0.153859 1.63989
                  CHANNELS 3 Zrotation Xrotation Yrotation
                  JOINT Bip001_R_Finger0
                  {
                    OFFSET -6.04641 -2.20976 5.90317
                    CHANNELS 3 Zrotation Xrotation Yrotation
                    End Site
                    {
                      OFFSET -4.22376 -1.43895 0.60647
                    }
                  }
                  JOINT Bip001_R_Finger1
                  {
                    OFFSET -11.0826 -0.704794 -0.198182
                    CHANNELS 3 Zrotation Xrotation Yrotation
                    End Site
                    {
                      OFFSET -6.20028 -0.397504 -0.0787333
                    }
                  }
                }
              }
            }
          }
          JOINT Bip001_Head
          {
            OFFSET 1.09673e-005 11.2744 2.05948
            CHANNELS 3 Zrotation Xrotation Yrotation
            End Site
            {
              OFFSET 2.89576e-005 20.8808 -2.77728e-005
            }
          }
        }
      }
    }
  }
}
MOTION
Frames:	6
Frame Time:	0.04
32.8614 95.4242 -30.9485 -1.14849 0.122683 12.494 -0.134692 2.44536 0.619172 8.05489 -10.256 5.92179 -0.970758 15.372 -8.13642 1.83968 -6.28745 0.0361952 1.17533 -3.97763 -0.890807 -2.59981 -2.56902 -1.72346 1.3596 10.0542 -1.33222 -9.08596 -6.60965 -8.9656 3.15532 -10.2026 3.04761 -0.296246 4.88912 1.24579 -0.296246 4.88912 1.24579 2.45965 -7.3558 -0.823085 -24.3674 9.80059 -4.97568 -51.1546 42.0548 4.68733 15.3589 -3.92719 -26.7106 0.33357 1.69708 -1.77626 -3.18055e-015 -3.18055e-015 -0 -1.59028e-015 -6.36111e-015 -0 16.1067 13.7938 20.837 46.4276 -49.3932 17.4851 -56.7292 -6.83561 98.979 -45.9763 -14.4836 1.93551 -3.18055e-015 -3.18055e-015 7.95139e-016 -1.59028e-015 0 7.95139e-016 -6.42317 4.87708 1.47648 
32.7546 95.4091 -31.0241 -1.50981 0.939994 15.2025 -0.212493 2.40357 0.764 8.12779 -12.1309 3.92478 -1.09535 15.9057 -8.64153 1.35632 -6.4367 0.037031 1.10621 -3.64477 -0.88976 -2.18588 -2.8582 -1.99634 1.59845 9.62519 -1.69927 -9.53725 -6.1044 -10.8981 3.20731 -10.3154 3.03793 -0.458048 4.80405 1.54237 -0.457724 4.80406 1.5407 3.40425 -8.2203 -2.5282 -25.9764 10.0281 -3.72872 -50.3176 40.6766 5.11148 14.8289 -3.5362 -27.0725 2.16475 1.62205 -1.82066 -1.59028e-015 3.18055e-015 -3.18055e-015 -1.76556e-031 -3.18056e-015 -3.18055e-015 13.6492 14.9471 23.0337 48.5225 -44.8033 24.7134 -57.1836 -5.27787 96.8636 -46.7266 -15.2551 1.422 3.18055e-015 0 -2.38542e-015 3.18055e-015 0 -2.38542e-015 -7.50626 7.1624 0.460373 
32.5832 95.3318 -31.1276 -1.97343 1.81201 18.0133 -0.294731 2.36696 0.711679 8.09271 -14.1034 4.47674 -0.579567 16.3483 -12.1685 3.29275 -5.03037 -0.00606905 1.8085 -4.92195 -1.40083 -1.7235 -3.50147 -1.91161 1.88167 9.65449 -2.12592 -9.93595 -5.82349 -13.0345 3.22007 -10.3038 2.98173 -0.622945 4.73 1.43816 -0.619848 4.73001 1.43784 3.47021 -8.19955 -3.73213 -26.6793 9.38235 -2.30227 -49.6669 40.2954 5.62095 14.7582 -3.66712 -27.0967 3.73968 1.24482 -2.40451 -1.59028e-015 -6.36111e-015 3.18055e-015 5.29669e-031 -9.54167e-015 3.18055e-015 12.4184 15.3079 25.7484 47.5475 -37.4878 32.67 -58.5091 0.0442098 90.4096 -45.0572 -17.2018 1.68661 1.59028e-015 0 -1.59028e-015 1.59028e-015 0 -1.59028e-015 -7.35245 9.15514 -0.564604 
32.3035 95.3487 -31.117 -2.48542 2.24278 20.4128 -0.31433 2.46561 0.791334 8.43986 -15.624 3.33226 -0.684363 16.7378 -13.1757 1.86524 -5.6143 0.0156432 1.25 -3.99162 -0.987693 -1.06106 -3.55068 -1.80587 2.03789 8.85774 -2.3181 -10.373 -5.07565 -15.0147 3.23929 -10.3202 2.93568 -0.663525 4.92669 1.59883 -0.663682 4.92664 1.59863 3.50841 -7.74694 -5.5437 -27.6207 8.08962 -0.640444 -48.3427 40.6393 5.68259 14.6194 -3.92543 -27.2722 3.76062 0.781538 -2.92546 3.18055e-015 3.18055e-015 3.18055e-015 3.18055e-015 -3.18056e-015 3.18055e-015 9.90541 14.9784 29.6914 54.7379 -37.2258 42.7118 -66.8441 2.97091 87.9967 -46.4277 -14.2494 -0.366551 -1.59028e-015 -1.59028e-014 1.59028e-015 -3.18055e-015 -1.27222e-014 7.95139e-016 -7.26098 10.4808 -2.20312 
32.0264 95.3427 -31.2529 -3.10354 2.97507 22.4439 -0.411442 2.55658 0.786276 8.59245 -17.3888 1.76931 -0.70942 16.8905 -13.4016 1.61169 -5.36687 0.0176831 1.2401 -3.90754 -1.00444 -0.4847 -4.3866 -1.29485 2.30762 8.66453 -2.66127 -10.7515 -4.52373 -16.8371 3.215 -10.1986 2.84452 -0.844943 5.1063 1.58598 -0.853498 5.10702 1.58916 5.88192 -5.72439 -7.38189 -30.1266 5.08656 0.0983858 -46.8044 40.5896 5.84682 14.5169 -3.25452 -27.7648 3.73411 0.851144 -2.74707 -5.56597e-015 6.36111e-015 -0 -4.77083e-015 6.36111e-015 -1.59028e-015 9.18566 13.0104 28.3659 60.6129 -38.136 44.799 -62.775 -2.79753 93.2284 -47.7703 -12.096 0.723876 3.97569e-016 0 -0 1.19271e-015 -3.18056e-015 -7.95139e-016 -9.29825 8.87574 -2.84313 
32.1803 95.4201 -31.3948 -2.58841 3.07431 21.9925 -0.574535 2.53964 0.390538 8.05335 -16.8128 1.72249 -0.201302 16.2172 -12.4193 -0.189333 -5.98781 0.0196232 0.569701 -2.55568 -0.511598 -1.13896 -4.68746 -1.74554 2.50964 9.31956 -2.44255 -10.5409 -4.85996 -16.1216 3.17971 -10.1178 2.84342 -1.18871 5.07516 0.810666 -1.17644 5.07497 0.809978 9.0563 -3.39407 -8.22404 -31.4191 2.19145 -0.358831 -50.9135 38.353 9.76502 14.7213 -2.13678 -27.8228 4.89538 2.06631 -1.92679 -6.36111e-015 6.36111e-015 -3.18055e-015 -7.95139e-015 6.36111e-015 -3.18055e-015 9.99292 11.1759 27.1934 53.7861 -31.2152 43.5719 -64.9771 -3.14972 93.4838 -47.1482 -13.4015 0.191562 3.97569e-016 -6.36111e-015 -0 -3.97569e-016 -3.18056e-015 -0 -12.7771 8.72215 -1.5841 
